<?xml version="1.0" encoding="UTF-8" standalone="no"?>
<svg
   xmlns:dc="http://purl.org/dc/elements/1.1/"
   xmlns:cc="http://creativecommons.org/ns#"
   xmlns:rdf="http://www.w3.org/1999/02/22-rdf-syntax-ns#"
   xmlns:svg="http://www.w3.org/2000/svg"
   xmlns="http://www.w3.org/2000/svg"
   viewBox="0 0 793.70135 1122.52"
   height="1122.52"
   width="793.70135"
   xml:space="preserve"
   id="svg2"
   version="1.1"><metadata
     id="metadata8"><rdf:RDF><cc:Work
         rdf:about=""><dc:format>image/svg+xml</dc:format><dc:type
           rdf:resource="http://purl.org/dc/dcmitype/StillImage" /></cc:Work></rdf:RDF></metadata><defs
     id="defs6"><clipPath
       id="clipPath20"
       clipPathUnits="userSpaceOnUse"><path
         id="path18"
         d="m 109.744,486.31 23.247,-36.905 c 0,0 12.863,-1.078 6.051,20.66 v 0 c 5.879,11.111 17.389,26.069 39.863,43.336 v 0 -245.852 c -9.689,-2.729 -22.49,-7.862 -13.762,-16.605 v 0 h 66.781 c 8.81,8.825 -5.074,14.135 -13.537,16.605 v 0 58.001 c 0,0 45.786,-17.974 95.145,-17.974 v 0 c 43.369,0 82.829,12.901 112.176,36.214 v 0 c 29.353,23.185 48.26,57.786 48.149,97.354 v 0 c 0.083,38.839 -16.533,74.484 -45.151,99.387 v 0 c -28.596,24.992 -68.636,39.414 -115.174,39.414 v 0 c -121.29,0 -203.788,-93.635 -203.788,-93.635 M 218.387,348.243 v 52.825 131.611 c 23.164,16.467 60.731,26.606 91.071,26.545 v 0 c 36.855,-0.028 65.799,-13.957 85.363,-35.098 v 0 c 19.543,-21.267 30.208,-49.519 30.308,-82.363 v 0 c -0.122,-31.998 -11.521,-58.35 -31.82,-78.567 v 0 c -20.293,-20.047 -49.806,-32.717 -83.851,-32.695 v 0 c -0.053,0 -0.114,0 -0.167,0 v 0 c -0.002,0 -0.004,0 -0.007,0 v 0 c -37.906,0 -69.812,7.353 -90.897,17.742" /></clipPath></defs><g
     transform="matrix(1.3333333,0,0,-1.3333333,0,1122.52)"
     id="g10"><path
       id="path12"
       style="fill:none;fill-opacity:1;fill-rule:evenodd;stroke:none"
       d="m 41.638,676.945 h 512 v -512 h -512 z" /><g
       id="g14"><g
         clip-path="url(#clipPath20)"
         id="g16"><path
           id="path22"
           style="fill:#ffffff;fill-opacity:1;fill-rule:nonzero;stroke:none"
           d="m 104.745,245.944 h 374.114 v 339 H 104.745 Z" /></g></g></g></svg>